<?xml version="1.0" encoding="UTF-8" standalone="no"?>
<!-- Created with Inkscape (http://www.inkscape.org/) -->

<svg
   xmlns:dc="http://purl.org/dc/elements/1.1/"
   xmlns:cc="http://creativecommons.org/ns#"
   xmlns:rdf="http://www.w3.org/1999/02/22-rdf-syntax-ns#"
   xmlns:svg="http://www.w3.org/2000/svg"
   xmlns="http://www.w3.org/2000/svg"
   xmlns:sodipodi="http://sodipodi.sourceforge.net/DTD/sodipodi-0.dtd"
   xmlns:inkscape="http://www.inkscape.org/namespaces/inkscape"
   version="1.1"
   id="svg283"
   width="670.13416"
   height="438.22339"
   viewBox="0 0 670.13416 438.22339"
   sodipodi:docname="logo.svg"
   inkscape:version="0.92.2 (5c3e80d, 2017-08-06)">
  <metadata
     id="metadata289">
    <rdf:RDF>
      <cc:Work
         rdf:about="">
        <dc:format>image/svg+xml</dc:format>
        <dc:type
           rdf:resource="http://purl.org/dc/dcmitype/StillImage" />
        <dc:title></dc:title>
      </cc:Work>
    </rdf:RDF>
  </metadata>
  <defs
     id="defs287">
    <clipPath
       clipPathUnits="userSpaceOnUse"
       id="clipPath295">
      <rect
         style="fill:#f9f9f9"
         id="rect297"
         width="690.24426"
         height="477.86142"
         x="295.11337"
         y="156.93849" />
    </clipPath>
    <clipPath
       clipPathUnits="userSpaceOnUse"
       id="clipPath336">
      <rect
         style="fill:#f9f9f9"
         id="rect338"
         width="582.81805"
         height="232.13939"
         x="397.60046"
         y="81.616669" />
    </clipPath>
  </defs>
  <sodipodi:namedview
     pagecolor="#ffffff"
     bordercolor="#666666"
     borderopacity="1"
     objecttolerance="10"
     gridtolerance="10"
     guidetolerance="10"
     inkscape:pageopacity="0"
     inkscape:pageshadow="2"
     inkscape:window-width="1920"
     inkscape:window-height="1017"
     id="namedview285"
     showgrid="false"
     showguides="true"
     inkscape:guide-bbox="true"
     inkscape:pagecheckerboard="true"
     inkscape:zoom="1.1453125"
     inkscape:cx="251.66148"
     inkscape:cy="190.67633"
     inkscape:window-x="-8"
     inkscape:window-y="-8"
     inkscape:window-maximized="1"
     inkscape:current-layer="svg283"
     fit-margin-top="0"
     fit-margin-left="0"
     fit-margin-right="0"
     fit-margin-bottom="0">
    <sodipodi:guide
       position="334.90557,-338.29656"
       orientation="1,0"
       id="guide348"
       inkscape:locked="false" />
  </sodipodi:namedview>
  <g
     id="g355"
     transform="translate(-304.22131,-114.61238)">
    <path
       transform="translate(-50.626144,27.165248)"
       clip-path="url(#clipPath336)"
       inkscape:connector-curvature="0"
       id="path328"
       d="m 517.80007,539.41202 c 0,-11.3122 0.22296,-13.11695 1.69003,-13.67991 0.92952,-0.35669 1.85928,-0.14078 2.06614,0.4798 0.27721,0.83164 1.01612,0.83674 2.80997,0.0194 5.08297,-2.31595 9.43386,2.17158 9.43386,9.73014 0,6.91188 -3.71531,10.65924 -8.92783,9.00486 -1.86438,-0.59174 -2.07217,-0.24983 -2.07217,3.4097 0,3.67188 -0.2431,4.06739 -2.5,4.06739 h -2.5 z m 10.50247,0.78138 c 2.04235,-5.806 0.67819,-11.05661 -2.74627,-10.57036 -1.8888,0.26819 -2.30718,1.03106 -2.56929,4.68476 -0.1722,2.40043 -0.0738,4.98793 0.21862,5.75 0.66239,1.72617 4.50151,1.8283 5.09694,0.1356 z m 221.49753,10.25 c 0,-1.1 0.62686,-2 1.39301,-2 2.77712,0 2.63276,-3.5719 -0.51322,-12.69869 -1.76436,-5.11858 -2.9285,-9.58593 -2.58698,-9.92745 1.44031,-1.44032 3.56718,0.79536 5.27513,5.54502 1.00493,2.79462 2.16526,5.08112 2.5785,5.08112 0.41325,0 1.53153,-2.475 2.48508,-5.5 1.26503,-4.01313 2.22503,-5.5 3.5511,-5.5 0.99956,0 1.81738,0.58658 1.81738,1.30352 0,1.67627 -6.39956,20.70602 -7.91642,23.54032 -1.53709,2.87207 -6.08358,2.98877 -6.08358,0.15616 z m 141,-1.93713 c 0,-3.91617 -0.018,-3.9342 -3.38743,-3.38743 -5.23705,0.84986 -7.61257,-2.11054 -7.61257,-9.48688 0,-8.27933 3.70643,-12.02159 9.06574,-9.15338 1.33333,0.71358 1.93426,0.71358 1.93426,0 0,-0.56935 0.9,-1.03518 2,-1.03518 1.90123,0 2,0.66667 2,13.5 0,12.83333 -0.0988,13.5 -2,13.5 -1.66134,0 -2,-0.66667 -2,-3.93713 z m -1.05792,-8.49308 c 1.73497,-2.09051 0.91179,-8.65176 -1.25065,-9.96851 -1.44416,-0.87938 -2.099,-0.71016 -3.25,0.83985 -3.83623,5.16613 0.49625,13.95367 4.50065,9.12866 z m -518.6387,3.80839 c -2.68889,-1.32591 -3.02199,-1.8559 -2.09718,-3.33675 1.00997,-1.61722 1.40705,-1.63965 4.87939,-0.27567 2.19161,0.86088 4.8852,1.2074 6.41024,0.82464 2.14863,-0.53927 2.57296,-1.15735 2.31723,-3.37528 -0.27018,-2.34325 -0.98845,-2.8818 -5.24429,-3.93206 -6.18996,-1.52758 -7.96877,-3.29051 -7.96877,-7.89761 0,-5.41244 3.28913,-7.72523 10.1744,-7.15425 6.12694,0.50809 8.19631,1.89424 6.27821,4.20541 -0.92234,1.11135 -1.75561,1.25752 -3.09187,0.54238 -2.74205,-1.4675 -6.54835,-1.18082 -8.03031,0.60483 -1.97704,2.38219 0.0523,4.75063 4.89016,5.70736 8.5425,1.68936 11.11794,10.62077 4.10789,14.24581 -3.6536,1.88934 -8.59766,1.82715 -12.6251,-0.15881 z m 23.33148,-0.45076 c -2.27305,-1.78798 -2.63486,-2.82409 -2.63486,-7.54545 0,-4.47738 0.44648,-5.91935 2.45455,-7.92742 2.9497,-2.9497 7.3909,-3.21004 10.58862,-0.62068 3.39374,2.74809 3.96069,11.6435 0.98254,15.41613 -2.68679,3.40355 -7.55694,3.69318 -11.39085,0.67742 z m 7.31973,-2.87819 c 3.07758,-1.94683 1.33593,-10.95563 -2.13316,-11.03392 -1.73047,-0.039 -3.82143,3.43881 -3.82143,6.35612 0,4.77556 2.58716,6.80797 5.95459,4.6778 z m 12.49811,2.89851 c -1.21934,-1.34736 -1.89849,-4.21363 -2.23283,-9.42341 -0.41389,-6.44921 -0.24051,-7.57918 1.25074,-8.15143 2.53864,-0.97416 3.49669,1.29135 3.51408,8.30971 0.0134,5.39601 0.28257,6.26744 2.11597,6.84934 3.08449,0.97898 4.38326,-0.98079 4.52771,-6.83204 0.21065,-8.53279 0.25621,-8.69991 2.37163,-8.69991 1.86475,0 2,0.66667 2,9.85841 v 9.85841 l -5.89748,0.0836 c -4.63307,0.0657 -6.27317,-0.33152 -7.64982,-1.8527 z m 21.2973,0.97216 c -1.40104,-0.81603 -1.75,-2.40521 -1.75,-7.96959 0,-3.96687 -0.42925,-6.95031 -1,-6.95031 -0.55,0 -1,-0.9 -1,-2 0,-1.1 0.45,-2 1,-2 0.55,0 1,-1.125 1,-2.5 0,-1.83333 0.53333,-2.5 2,-2.5 1.46667,0 2,0.66667 2,2.5 0,1.55556 0.56667,2.5 1.5,2.5 0.825,0 1.5,0.85186 1.5,1.89301 0,1.04116 -0.675,2.15203 -1.5,2.46862 -1.06002,0.40676 -1.5,2.06062 -1.5,5.63837 0,3.57775 0.43998,5.23161 1.5,5.63837 0.825,0.31659 1.5,1.42746 1.5,2.46862 0,2.08924 -2.41631,2.46338 -5.25,0.81291 z m 9.95124,0.448 c -0.38568,-0.38568 -0.70124,-6.50753 -0.70124,-13.60412 0,-12.80878 0.0164,-12.90055 2.25,-12.58333 1.7979,0.25534 2.3115,1.05859 2.55607,3.99758 0.29593,3.55603 0.41515,3.66033 3.59437,3.14441 2.73388,-0.44364 3.65174,-0.0716 5.44393,2.20683 1.76433,2.24299 2.15563,4.07739 2.15563,10.10559 0,6.69847 -0.18103,7.36514 -2,7.36514 -1.79259,0 -2,-0.66667 -2,-6.42857 0,-4.51082 -0.46878,-6.89736 -1.57143,-8 -3.39639,-3.39639 -5.22948,-0.96648 -5.62536,7.45687 -0.22877,4.86766 -0.68345,6.52394 -1.85197,6.74623 -0.85182,0.16203 -1.86432,-0.0209 -2.25,-0.40663 z m 22.69846,-0.14862 c -2.24686,-1.46881 -3.42101,-5.03303 -2.47645,-7.51742 1.07142,-2.81804 2.89989,-3.70186 7.65854,-3.70186 1.88001,0 3.41821,-0.3949 3.41821,-0.87756 0,-1.80284 -2.86311,-3.15465 -6.12713,-2.89291 -4.84867,0.38881 -4.54244,-2.44063 0.39619,-3.66055 3.15451,-0.77922 4.21434,-0.59922 6.5,1.10392 2.5255,1.88187 2.75266,2.63961 3.01964,10.07299 l 0.28869,8.03804 -5.78869,0.0773 c -3.18379,0.0425 -6.28383,-0.24636 -6.889,-0.64197 z m 8.6003,-5.28264 c 0,-1.7246 -0.53224,-2.01191 -3.24181,-1.75 -2.13505,0.20638 -3.35499,0.91081 -3.57332,2.06336 -0.2656,1.40202 0.37902,1.75 3.24181,1.75 2.94323,0 3.57332,-0.36384 3.57332,-2.06336 z m 9.70124,5.43126 c -0.38568,-0.38568 -0.70124,-4.69036 -0.70124,-9.56595 0,-7.40027 0.27919,-8.97186 1.69003,-9.51324 0.92952,-0.35669 1.85125,-0.16486 2.0483,0.42628 0.25542,0.76625 1.17669,0.7659 3.20904,-0.001 2.29687,-0.86697 3.36181,-0.7412 5.48093,0.6473 2.3699,1.55282 2.78275,1.57075 4.17235,0.18114 2.35082,-2.35081 5.9942,-1.87272 8.32677,1.09266 1.67067,2.12391 2.07258,4.06308 2.07258,10 0,6.69847 -0.18103,7.36514 -2,7.36514 -1.79259,0 -2,-0.66667 -2,-6.42857 0,-7.38981 -1.73868,-10.31683 -5.06945,-8.53426 -1.62371,0.86875 -1.93055,2.13994 -1.93055,7.99778 0,6.29815 -0.19144,6.96482 -2,6.96482 -1.1,0 -2.04706,-0.3375 -2.10459,-0.75 -0.0575,-0.4125 -0.20987,-3.60354 -0.33856,-7.09121 -0.2433,-6.59423 -1.30462,-8.29902 -4.62587,-7.43049 -1.5419,0.40322 -1.89589,1.66356 -2.1393,7.61683 -0.22449,5.49024 -0.64848,7.20166 -1.84044,7.42883 -0.85182,0.16235 -1.86432,-0.0204 -2.25,-0.40606 z m 53.49876,-0.5679 c -0.69804,-0.69804 -1.2,-4.04444 -1.2,-8 0,-3.86667 -0.43137,-6.8 -1,-6.8 -0.55,0 -1,-0.9 -1,-2 0,-1.1 0.45,-2 1,-2 0.55,0 1,-1.125 1,-2.5 0,-1.83333 0.53333,-2.5 2,-2.5 1.46667,0 2,0.66667 2,2.5 0,1.55556 0.56667,2.5 1.5,2.5 0.825,0 1.5,0.85186 1.5,1.89301 0,1.04116 -0.675,2.15203 -1.5,2.46862 -1.06002,0.40676 -1.5,2.06062 -1.5,5.63837 0,3.57775 0.43998,5.23161 1.5,5.63837 0.825,0.31659 1.5,1.42746 1.5,2.46862 0,2.18778 -3.84572,2.64729 -5.8,0.69301 z m 12.43486,-0.87258 c -2.27305,-1.78798 -2.63486,-2.82409 -2.63486,-7.54545 0,-4.47738 0.44648,-5.91935 2.45455,-7.92742 2.9497,-2.9497 7.3909,-3.21004 10.58862,-0.62068 3.39374,2.74809 3.96069,11.6435 0.98254,15.41613 -2.68679,3.40355 -7.55694,3.69318 -11.39085,0.67742 z m 7.22054,-2.81689 c 1.87588,-1.18864 1.9467,-8.99083 0.0923,-10.16404 -1.99716,-1.26351 -2.56952,-1.18177 -4.37623,0.62494 -1.85518,1.85518 -2.08305,7.51695 -0.37143,9.22857 1.40783,1.40783 2.77931,1.49931 4.6554,0.31053 z m 10.84584,4.25737 c -0.38568,-0.38568 -0.70124,-4.69036 -0.70124,-9.56595 0,-7.20564 0.29962,-8.9797 1.60092,-9.47905 0.88051,-0.33788 1.90489,-0.12252 2.2764,0.4786 0.43622,0.70582 1.19741,0.76286 2.14907,0.16103 2.65062,-1.67624 5.78967,-1.01183 7.90103,1.67233 1.67067,2.12391 2.07258,4.06308 2.07258,10 0,6.69847 -0.18103,7.36514 -2,7.36514 -1.79259,0 -2,-0.66667 -2,-6.42857 0,-4.51082 -0.46878,-6.89736 -1.57143,-8 -3.39639,-3.39639 -5.22948,-0.96648 -5.62536,7.45687 -0.22877,4.86766 -0.68345,6.52394 -1.85197,6.74623 -0.85182,0.16203 -1.86432,-0.0209 -2.25,-0.40663 z m 33.95506,-0.50043 c -3.17746,-1.84702 -4.6563,-7.216 -4.6563,-16.9049 0,-8.86679 0.0581,-9.09343 2.25,-8.78212 2.10839,0.29944 2.26578,0.8545 2.50078,8.81955 0.13793,4.675 0.47051,9.45873 0.73906,10.63051 0.63623,2.77603 4.34834,3.70554 7.23774,1.81233 2.11189,-1.38376 2.27242,-2.19375 2.27242,-11.46589 0,-9.31028 0.13364,-9.97695 2,-9.97695 1.62427,0 2.02131,0.70449 2.11346,3.75 0.29788,9.8455 -0.15298,17.45533 -1.14387,19.30682 -1.91301,3.57449 -9.31201,5.13654 -13.31329,2.81065 z m 20.04494,0.50043 c -0.38568,-0.38568 -0.70124,-4.69036 -0.70124,-9.56595 0,-7.20564 0.29962,-8.9797 1.60092,-9.47905 0.88051,-0.33788 1.90489,-0.12252 2.2764,0.4786 0.43622,0.70582 1.19741,0.76286 2.14907,0.16103 2.65062,-1.67624 5.78967,-1.01183 7.90103,1.67233 1.67067,2.12391 2.07258,4.06308 2.07258,10 0,6.69847 -0.18103,7.36514 -2,7.36514 -1.79259,0 -2,-0.66667 -2,-6.42857 0,-4.51082 -0.46878,-6.89736 -1.57143,-8 -3.39639,-3.39639 -5.22948,-0.96648 -5.62536,7.45687 -0.22877,4.86766 -0.68345,6.52394 -1.85197,6.74623 -0.85182,0.16203 -1.86432,-0.0209 -2.25,-0.40663 z m 21,0 c -0.38568,-0.38568 -0.70124,-4.69036 -0.70124,-9.56595 0,-7.20564 0.29962,-8.9797 1.60092,-9.47905 2.62376,-1.00683 3.42378,1.6984 3.15424,10.66585 -0.20242,6.73418 -0.57528,8.54989 -1.80392,8.78457 -0.85182,0.1627 -1.86432,-0.0197 -2.25,-0.40542 z m 13.89026,-0.21985 c -1.10755,-1.79205 -6.5915,-16.66377 -6.5915,-17.87524 0,-0.70005 0.69796,-1.27281 1.55103,-1.27281 1.39376,0 2.54088,2.02442 5.66638,10 0.92187,2.35238 1.10675,2.14652 3.13115,-3.48652 1.36473,-3.79746 2.79136,-6.10968 3.90144,-6.32333 2.15018,-0.41382 2.30365,2.17019 0.41205,6.93773 -0.73587,1.85466 -2.12309,5.50962 -3.0827,8.12212 -1.60445,4.368 -3.69006,5.99793 -4.98785,3.89805 z m 15.86305,-1.6026 c -1.96321,-1.9632 -2.45455,-3.47362 -2.45455,-7.54545 0,-4.07183 0.49134,-5.58225 2.45455,-7.54545 1.35,-1.35 3.5749,-2.45455 4.94423,-2.45455 3.68191,0 7.57015,3.8808 8.26582,8.25 l 0.59708,3.75 h -5.57182 c -6.15744,0 -8.12047,1.39105 -4.37274,3.09863 1.74982,0.79727 2.99567,0.80434 4.45138,0.0253 1.53827,-0.82325 2.29703,-0.74986 3.17417,0.30703 0.90553,1.0911 0.66593,1.72982 -1.1175,2.97898 -3.32753,2.3307 -7.5254,1.98078 -10.37062,-0.86445 z m 8.35856,-11.29545 c -0.49241,-2.58356 -4.45038,-2.79628 -5.78063,-0.31068 -1.01897,1.90395 -0.82839,2.06068 2.50566,2.06068 2.89707,0 3.54275,-0.34502 3.27497,-1.75 z m 9.88813,13.1179 c -0.38568,-0.38568 -0.70124,-4.69036 -0.70124,-9.56595 0,-7.20564 0.29962,-8.9797 1.60092,-9.47905 0.88051,-0.33788 1.97122,-0.0152 2.42379,0.71708 0.67553,1.09302 1.10276,1.09912 2.38609,0.034 2.17014,-1.80106 6.83038,-0.55152 6.38391,1.7117 -0.20257,1.02688 -1.33192,1.75775 -2.81644,1.8227 -1.36305,0.0596 -3.02106,0.17214 -3.68446,0.25 -0.7865,0.0923 -1.30842,2.66048 -1.5,7.38097 -0.22665,5.58466 -0.64782,7.30686 -1.84257,7.53456 -0.85182,0.16235 -1.86432,-0.0204 -2.25,-0.40606 z m 17.65109,-0.36121 c -5.11687,-2.06454 -2.85593,-5.77796 2.32685,-3.82168 3.40262,1.28434 6.32082,0.58168 6.32082,-1.52196 0,-0.87918 -1.50213,-1.60119 -4.03922,-1.94148 -5.11068,-0.68549 -6.96078,-2.22369 -6.96078,-5.78731 0,-5.02759 6.4604,-7.50413 12.45295,-4.77374 2.81169,1.28109 3.07425,1.91228 1.46492,3.52161 -0.77618,0.77618 -1.9061,0.77113 -3.99641,-0.0179 -2.38866,-0.90162 -3.2136,-0.80068 -4.57393,0.55965 -1.54621,1.54621 -1.46101,1.70033 1.24641,2.25473 6.52261,1.33563 7.77032,2.04913 8.52584,4.87547 1.50384,5.62579 -5.83491,9.44971 -12.76745,6.65259 z m 17.34891,0.36121 c -0.38568,-0.38568 -0.70124,-4.69036 -0.70124,-9.56595 0,-7.20564 0.29962,-8.9797 1.60092,-9.47905 2.62376,-1.00683 3.42378,1.6984 3.15424,10.66585 -0.20242,6.73418 -0.57528,8.54989 -1.80392,8.78457 -0.85182,0.1627 -1.86432,-0.0197 -2.25,-0.40542 z m 10.49876,-0.5679 c -0.69804,-0.69804 -1.2,-4.04444 -1.2,-8 0,-3.86667 -0.43137,-6.8 -1,-6.8 -0.55,0 -1,-0.9 -1,-2 0,-1.1 0.45,-2 1,-2 0.55,0 1,-1.125 1,-2.5 0,-1.83333 0.53333,-2.5 2,-2.5 1.46667,0 2,0.66667 2,2.5 0,1.55556 0.56667,2.5 1.5,2.5 0.825,0 1.5,0.85186 1.5,1.89301 0,1.04116 -0.675,2.15203 -1.5,2.46862 -1.06002,0.40676 -1.5,2.06062 -1.5,5.63837 0,3.57775 0.43998,5.23161 1.5,5.63837 0.825,0.31659 1.5,1.42746 1.5,2.46862 0,2.18778 -3.84572,2.64729 -5.8,0.69301 z m 37.10338,-0.42182 c -2.68889,-1.32591 -3.02199,-1.8559 -2.09718,-3.33675 1.00997,-1.61722 1.40705,-1.63965 4.87939,-0.27567 2.19161,0.86088 4.8852,1.2074 6.41024,0.82464 2.14863,-0.53927 2.57296,-1.15735 2.31723,-3.37528 -0.27018,-2.34325 -0.98845,-2.8818 -5.24429,-3.93206 -6.18996,-1.52758 -7.96877,-3.29051 -7.96877,-7.89761 0,-5.41244 3.28913,-7.72523 10.1744,-7.15425 6.12694,0.50809 8.19631,1.89424 6.27821,4.20541 -0.92234,1.11135 -1.75561,1.25752 -3.09187,0.54238 -2.74205,-1.4675 -6.54835,-1.18082 -8.03031,0.60483 -1.97704,2.38219 0.0523,4.75063 4.89016,5.70736 8.5425,1.68936 11.11794,10.62077 4.10789,14.24581 -3.6536,1.88934 -8.59766,1.82715 -12.6251,-0.15881 z m 23.14932,-0.43044 c -1.21934,-1.34736 -1.89849,-4.21363 -2.23283,-9.42341 -0.41389,-6.44921 -0.24051,-7.57918 1.25074,-8.15143 2.53864,-0.97416 3.49669,1.29135 3.51408,8.30971 0.0134,5.39601 0.28257,6.26744 2.11597,6.84934 3.08449,0.97898 4.38326,-0.98079 4.52771,-6.83204 0.21065,-8.53279 0.25621,-8.69991 2.37163,-8.69991 1.86475,0 2,0.66667 2,9.85841 v 9.85841 l -5.89748,0.0836 c -4.63307,0.0657 -6.27317,-0.33152 -7.64982,-1.8527 z m 19.0848,1.25643 c -0.29563,-0.29563 -0.5375,-6.3438 -0.5375,-13.44039 0,-12.80878 0.0164,-12.90055 2.25,-12.58333 1.80258,0.25601 2.31128,1.05797 2.55818,4.03291 0.28717,3.46021 0.49424,3.67616 3.03737,3.16753 4.20006,-0.84001 7.24068,2.20456 7.88174,7.892 0.64371,5.71098 -1.15877,10.60318 -4.10388,11.13854 -3.0781,0.55954 -10.45707,0.42158 -11.08591,-0.20726 z m 9.96497,-4.45417 c 2.04235,-5.806 0.67819,-11.05661 -2.74627,-10.57036 -1.8888,0.26819 -2.30718,1.03106 -2.56929,4.68476 -0.1722,2.40043 -0.0738,4.98793 0.21862,5.75 0.66239,1.72617 4.50151,1.8283 5.09694,0.1356 z m 26.30012,4.71926 c -0.2919,-0.29191 1.5899,-6.25441 4.18179,-13.25 6.39883,-17.27066 7.0369,-17.295 13.28141,-0.50667 2.61599,7.03308 4.75137,13.12491 4.74528,13.53741 -0.006,0.4125 -0.93448,0.75 -2.06309,0.75 -1.38095,0 -2.39403,-0.98108 -3.09782,-3 -0.97222,-2.78891 -1.39441,-3 -6,-3 -4.6056,0 -5.02779,0.21109 -6,3 -0.94424,2.70864 -3.53889,3.97794 -5.04757,2.46926 z m 14.17119,-10.71926 c -0.0144,-0.6875 -0.80717,-2.9881 -1.76166,-5.11243 l -1.73543,-3.86244 -1.5688,5.11244 -1.5688,5.11243 h 3.33045 c 2.01169,0 3.32008,-0.49497 3.30424,-1.25 z m 33.47892,9.19774 c -1.21934,-1.34736 -1.89849,-4.21363 -2.23283,-9.42341 -0.41389,-6.44921 -0.24051,-7.57918 1.25074,-8.15143 2.53864,-0.97416 3.49669,1.29135 3.51408,8.30971 0.0134,5.39601 0.28257,6.26744 2.11597,6.84934 3.08449,0.97898 4.38326,-0.98079 4.52771,-6.83204 0.21065,-8.53279 0.25621,-8.69991 2.37163,-8.69991 1.86475,0 2,0.66667 2,9.85841 v 9.85841 l -5.89748,0.0836 c -4.63307,0.0657 -6.27317,-0.33152 -7.64982,-1.8527 z m 20.947,1.27154 c -2.24686,-1.46881 -3.42101,-5.03303 -2.47645,-7.51742 1.07142,-2.81804 2.89989,-3.70186 7.65854,-3.70186 1.88001,0 3.41821,-0.3949 3.41821,-0.87756 0,-1.80284 -2.86311,-3.15465 -6.12713,-2.89291 -4.84867,0.38881 -4.54244,-2.44063 0.39619,-3.66055 3.15451,-0.77922 4.21434,-0.59922 6.5,1.10392 2.5255,1.88187 2.75266,2.63961 3.01964,10.07299 l 0.28869,8.03804 -5.78869,0.0773 c -3.18379,0.0425 -6.28383,-0.24636 -6.889,-0.64197 z m 8.6003,-5.28264 c 0,-1.7246 -0.53224,-2.01191 -3.24181,-1.75 -2.13505,0.20638 -3.35499,0.91081 -3.57332,2.06336 -0.2656,1.40202 0.37902,1.75 3.24181,1.75 2.94323,0 3.57332,-0.36384 3.57332,-2.06336 z m 20.36032,4.60319 c -3.28383,-2.30009 -4.63829,-6.83342 -4.18212,-13.99743 0.53368,-8.38136 3.10998,-11.5424 9.40722,-11.5424 3.5034,0 4.68493,0.53259 6.82569,3.07673 1.42389,1.69219 2.58889,3.49219 2.58889,4 0,1.676 -3.65665,0.96015 -5.5,-1.07673 -2.30037,-2.54188 -6.12162,-2.57554 -7.46482,-0.0657 -1.18016,2.20515 -1.37856,12.99802 -0.26987,14.68096 1.64357,2.49486 5.1571,2.56945 7.47333,0.15866 2.76324,-2.87606 5.38019,-3.00872 4.95998,-0.25144 -0.80059,5.25323 -9.16947,8.28756 -13.8383,5.01739 z m 20.19638,-0.76234 c -1.1869,-1.69453 -1.5567,-4.91805 -1.5567,-13.56955 0,-11.19532 0.0301,-11.34277 2.25,-11.02749 2.1549,0.30604 2.26204,0.77843 2.53491,11.17589 0.20817,7.93202 0.68203,11.25346 1.75919,12.33062 0.81086,0.81085 1.21859,1.888 0.90607,2.39366 -1.0364,1.67694 -4.31371,0.95229 -5.89347,-1.30313 z m 11.896,0.17025 c -1.21934,-1.34736 -1.89849,-4.21363 -2.23283,-9.42341 -0.41389,-6.44921 -0.24051,-7.57918 1.25074,-8.15143 2.53864,-0.97416 3.49669,1.29135 3.51408,8.30971 0.0134,5.39601 0.28257,6.26744 2.11597,6.84934 3.08449,0.97898 4.38326,-0.98079 4.52771,-6.83204 0.21065,-8.53279 0.25621,-8.69991 2.37163,-8.69991 1.86475,0 2,0.66667 2,9.85841 v 9.85841 l -5.89748,0.0836 c -4.63307,0.0657 -6.27317,-0.33152 -7.64982,-1.8527 z m 19.08483,1.25643 c -0.2957,-0.29563 -0.5375,-6.3438 -0.5375,-13.44039 0,-12.80878 0.016,-12.90055 2.25,-12.58333 1.8025,0.25601 2.3112,1.05797 2.5581,4.03291 0.2872,3.46021 0.4943,3.67616 3.0374,3.16753 4.2001,-0.84001 7.2407,2.20456 7.8818,7.892 0.6437,5.71098 -1.1588,10.60318 -4.1039,11.13854 -3.0781,0.55954 -10.4571,0.42158 -11.0859,-0.20726 z m 9.9649,-4.45417 c 2.0424,-5.806 0.6782,-11.05661 -2.7462,-10.57036 -1.8888,0.26819 -2.3072,1.03106 -2.5693,4.68476 -0.1722,2.40043 -0.074,4.98793 0.2186,5.75 0.6624,1.72617 4.5015,1.8283 5.0969,0.1356 z m -175.50243,-4.75 c 0,-1.79487 0.66667,-2 6.5,-2 5.83333,0 6.5,0.20513 6.5,2 0,1.79487 -0.66667,2 -6.5,2 -5.83333,0 -6.5,-0.20513 -6.5,-2 z m -193,-15.06955 c 0,-1.57185 0.53864,-1.9927 2.23978,-1.75 3.32375,0.4742 3.61588,3.81955 0.33354,3.81955 -1.93548,0 -2.57332,-0.51297 -2.57332,-2.06955 z m 83,0 c 0,-1.57185 0.53864,-1.9927 2.23978,-1.75 3.32375,0.4742 3.61588,3.81955 0.33354,3.81955 -1.93548,0 -2.57332,-0.51297 -2.57332,-2.06955 z M 406.215,483.34154 c -4.44679,-0.33103 -11.42179,-1.38541 -15.5,-2.34307 -8.75826,-2.05665 -23.79474,-9.17802 -29.35397,-13.90222 l -3.93904,-3.34738 6.22139,-7.61371 c 3.42176,-4.18754 6.60162,-7.84871 7.06635,-8.13593 0.46474,-0.28722 3.84595,1.44883 7.51381,3.85789 3.66786,2.40906 10.58557,5.664 15.37269,7.23319 7.63884,2.50399 10.17215,2.85037 20.70384,2.83085 9.06284,-0.0168 13.3462,-0.48099 17.5,-1.89646 12.10338,-4.12441 18,-11.11254 18,-21.33192 0,-13.95259 -7.06834,-19.10542 -33.34301,-24.30711 -27.18999,-5.38291 -33.01202,-7.5937 -40.90693,-15.53358 -7.63518,-7.67866 -10.75006,-16.32351 -10.75006,-29.83508 0,-27.9961 20.8321,-45.50718 54.37529,-45.70686 9.83124,-0.0585 14.05442,0.47892 22.62471,2.87922 11.93129,3.34164 27.38758,11.68595 26.40294,14.25403 -0.31632,0.825 -0.74915,2.35817 -0.96186,3.40704 -0.56174,2.77003 -5.37692,9.4112 -8.36641,11.53908 -2.56114,1.82299 -2.60806,1.81243 -8.92794,-2.00958 -9.77766,-5.91314 -18.10405,-8.3799 -28.14673,-8.33868 -10.15642,0.0417 -13.07031,0.56884 -19,3.43733 -14.89549,7.20571 -19.93507,24.40629 -9.84501,33.60196 4.46777,4.07175 11.02087,6.47013 28.14266,10.30001 18.85262,4.21705 26.67495,6.68466 33.06919,10.43193 6.50337,3.81124 13.04588,11.44852 15.57524,18.18149 4.29436,11.43129 3.07925,31.52386 -2.48457,41.08365 -4.45219,7.6498 -17.40894,17.20576 -25.45751,18.77562 -1.375,0.26819 -3.625,0.73495 -5,1.03723 -8.74992,1.92361 -18.20877,2.37237 -30.58507,1.45106 z m 146.08507,0.035 c -5.5,-0.34242 -12.025,-1.18369 -14.5,-1.8695 -12.47976,-3.45805 -24.47311,-13.18536 -29.93418,-24.27838 -6.56977,-13.34508 -6.4097,-11.5809 -6.80798,-75.03526 l -0.36247,-57.75 h 11.0837 c 7.95982,0 11.21078,0.35231 11.53459,1.25 0.24798,0.6875 0.57136,26.225 0.71861,56.75 l 0.26773,55.5 3.5,6.96177 c 5.68799,11.31385 12.53786,15.38043 27.08343,16.0787 15.55641,0.7468 25.85754,-5.31681 31.49735,-18.54047 1.7948,-4.20826 1.95164,-8.16293 2.41922,-61 l 0.5,-56.5 10.41321,-0.28679 c 5.72727,-0.15773 10.81158,0.11158 11.29847,0.59847 0.8718,0.8718 1.20866,106.80281 0.35834,112.68832 -1.02926,7.12408 -3.57905,16.5 -4.48718,16.5 -0.36148,0 -0.73069,0.97516 -0.82047,2.16703 -0.20585,2.73277 -5.46485,10.30889 -10.16857,14.64885 -4.23267,3.90535 -12.76462,8.96198 -16.18382,9.59167 -1.32549,0.24411 -2.40998,0.5117 -2.40998,0.59465 0,0.25306 -2.73811,0.7072 -8.38048,1.38997 -2.95926,0.35809 -5.65926,0.76638 -6,0.90732 -0.34073,0.14093 -5.11952,-0.0239 -10.61952,-0.36635 z m 134.91493,-0.035 c -4.44679,-0.33103 -11.42179,-1.38541 -15.5,-2.34307 -8.75826,-2.05665 -23.79474,-9.17802 -29.35397,-13.90222 l -3.93904,-3.34738 6.22139,-7.61371 c 3.42176,-4.18754 6.60162,-7.84871 7.06635,-8.13593 0.46474,-0.28722 3.84595,1.44883 7.51381,3.85789 3.66786,2.40906 10.58557,5.664 15.37269,7.23319 7.63884,2.50399 10.17215,2.85037 20.70384,2.83085 9.06284,-0.0168 13.3462,-0.48099 17.5,-1.89646 12.10338,-4.12441 18,-11.11254 18,-21.33192 0,-13.95259 -7.06834,-19.10542 -33.34301,-24.30711 -27.18999,-5.38291 -33.01202,-7.5937 -40.90693,-15.53358 -7.63518,-7.67866 -10.75006,-16.32351 -10.75006,-29.83508 0,-27.9961 20.8321,-45.50718 54.37529,-45.70686 9.83124,-0.0585 14.05442,0.47892 22.62471,2.87922 11.93129,3.34164 27.38758,11.68595 26.40294,14.25403 -0.31632,0.825 -0.73632,2.29154 -0.93334,3.25898 -0.50227,2.46631 -6.37428,10.44854 -8.90718,12.10817 -1.90241,1.2465 -2.7299,1.00671 -8.4391,-2.44541 -9.75576,-5.89891 -18.08799,-8.36507 -28.12332,-8.32388 -10.15642,0.0417 -13.07031,0.56884 -19,3.43733 -14.89549,7.20571 -19.93507,24.40629 -9.84501,33.60196 4.46777,4.07175 11.02087,6.47013 28.14266,10.30001 18.85262,4.21705 26.67495,6.68466 33.06919,10.43193 6.50337,3.81124 13.04588,11.44852 15.57524,18.18149 4.29436,11.43129 3.07925,31.52386 -2.48457,41.08365 -4.45219,7.6498 -17.40894,17.20576 -25.45751,18.77562 -1.375,0.26819 -3.625,0.73495 -5,1.03723 -8.74992,1.92361 -18.20877,2.37237 -30.58507,1.45106 z m 283.75822,0.002 c -23.77534,-2.99049 -40.60041,-18.99519 -45.64546,-43.41984 -2.22701,-10.78165 -2.18172,-62.39803 0.0643,-73.2725 5.44987,-26.3865 25.58359,-43.15899 51.97236,-43.29582 23.84888,-0.12366 42.68768,12.11574 51.73538,33.61206 1.384,3.2883 2.8328,7.6656 3.2196,9.72732 l 0.7033,3.7486 h -11.4755 -11.4754 l -1.7078,-4.4719 c -4.0012,-10.47695 -16.18027,-19.61887 -26.84199,-20.14829 -16.13687,-0.80129 -28.75227,9.97332 -33.38644,28.51482 -1.10138,4.40667 -1.17721,53.23657 -0.0926,59.60537 2.69425,15.81993 12.98153,26.10616 27.25464,27.25187 8.89585,0.71407 15.52429,-1.16555 22.43813,-6.36278 4.69976,-3.5329 6.49236,-5.74677 9.20066,-11.36312 l 3.3636,-6.97536 11.2619,-0.0253 11.2618,-0.0253 -0.5618,4.25 c -0.7821,5.91788 -2.6092,11.75 -3.6809,11.75 -0.4945,0 -0.6559,0.39333 -0.3588,0.87407 1.4805,2.39543 -10.7827,17.13489 -18.9222,22.74308 -2.9257,2.01587 -9.1092,4.45362 -10.88816,4.29248 -0.4885,-0.0443 -1.17155,0.37803 -1.51788,0.9384 -0.34632,0.56036 -3.99663,1.29601 -8.1118,1.63476 -4.11517,0.33875 -8.38212,0.7503 -9.48212,0.91455 -1.1,0.16425 -4.84708,-0.0595 -8.32685,-0.49716 z m -200.76239,-1.6483 c -0.87086,-0.60111 30.96879,-88.93248 55.15057,-153.00184 l 1.60409,-4.25 h 9.44204 c 9.37144,0 9.45013,0.0206 10.52405,2.75 4.67894,11.89192 56.86849,153.79599 56.86849,154.62619 0,0.3431 -5.35186,0.62381 -11.89301,0.62381 -10.3867,0 -11.98388,-0.22165 -12.61045,-1.75 -0.39459,-0.9625 -2.86803,-8.05 -5.49654,-15.75 -2.62851,-7.7 -5.10195,-14.7875 -5.49654,-15.75 -0.66036,-1.61078 -3.05907,-1.75 -30.15226,-1.75 -26.66779,0 -29.60724,0.16451 -31.26893,1.75 -1.58266,1.51008 -3.37502,5.27258 -3.53311,7.41667 -0.027,0.36666 -0.38666,1.00416 -0.79916,1.41666 -0.4125,0.4125 -0.75,1.575 -0.75,2.58334 0,1.00833 -0.47656,1.83333 -1.05902,1.83333 -0.58246,0 -0.86029,0.3375 -0.61741,0.75 0.24288,0.4125 -0.0221,1.875 -0.58881,3.25 -0.56673,1.375 -1.1795,3.24445 -1.36171,4.15433 -0.18222,0.90988 -1.18701,3.83488 -2.23289,6.5 l -1.90159,4.84567 -11.36928,0.25184 c -6.25311,0.13852 -11.85945,-0.0865 -12.45853,-0.5 z m 84.51863,-72.50184 c -3.28166,-9.4875 -8.53189,-24.60017 -11.66718,-33.58372 l -5.70052,-16.33372 -2.03085,4.33372 c -1.11696,2.38355 -2.37114,4.48465 -2.78707,4.66913 -0.41593,0.18448 -0.55111,0.66731 -0.3004,1.07296 0.2507,0.40565 -2.47989,9.25471 -6.06799,19.66459 -3.5881,10.40987 -6.67586,19.60204 -6.86169,20.42704 -0.18582,0.825 -1.50242,4.70444 -2.92578,8.62099 -1.42335,3.91654 -2.58791,7.40404 -2.58791,7.75 0,0.34595 10.55161,0.62901 23.44802,0.62901 h 23.44802 z M 717.02728,307.97267 c -1.47857,-1.73514 -0.96112,-5.76024 1.15588,-8.99119 1.27863,-1.95144 1.29098,-2.78134 0.0915,-6.14705 -1.91836,-5.38264 -1.82873,-6.18139 1.08179,-9.64034 1.40598,-1.67092 2.18041,-3.41395 1.72096,-3.8734 -1.71781,-1.71781 -17.83557,-4.05622 -24.77729,-3.59475 -3.85,0.25593 -14.65,2.29476 -24,4.53072 -27.43434,6.56064 -30.78728,7.09562 -45.30778,7.22911 -14.34381,0.13187 -17.45664,-0.48153 -22.68779,-4.47074 -4.35417,-3.32045 -23.80512,-13.17401 -30.74957,-15.57729 -3.27107,-1.13202 -8.04158,-3.10741 -10.60113,-4.38976 -2.55955,-1.28235 -6.23856,-2.84399 -8.17557,-3.47031 -3.53898,-1.14432 -8.14777,-4.13024 -18.12441,-11.74236 -2.96129,-2.25945 -6.45832,-4.44902 -7.77118,-4.8657 -3.44395,-1.09307 -12.16449,-6.32219 -15.08257,-9.044 -3.66886,-3.42209 -25.4683,-12.98298 -33,-14.47327 -18.96693,-3.75298 -36.63699,-9.89247 -46.70683,-16.22838 -6.78196,-4.26715 -17.29322,-15.22173 -17.29322,-18.02253 0,-2.14355 0.90356,-2.2143 3.65617,-0.2863 2.94599,2.06345 19.41184,6.16668 28.21766,7.03174 l 7.37384,0.72439 -1.59244,-2.86393 c -2.89919,-5.21404 -4.50815,-10.21035 -3.96137,-12.30123 0.71917,-2.75012 1.40524,-2.61248 4.83808,0.97064 1.59837,1.66834 4.94506,4.22223 7.43709,5.67531 2.49203,1.45309 7.45597,4.9957 11.03097,7.87247 7.40897,5.96193 19.58948,12.41888 23.42721,12.41888 1.42408,0 7.35044,-1.125 13.16968,-2.5 5.81924,-1.375 12.37515,-2.5 14.5687,-2.5 5.82118,0 9.10237,3.66151 10.75355,12 1.76447,8.91055 1.84636,9.13875 4.39396,12.24317 1.45241,1.76986 3.30417,2.7903 5.21902,2.876 2.70615,0.12112 6.53065,1.15343 19.46788,5.25479 9.00423,2.85452 32.67031,11.37848 35.05381,12.62555 1.3454,0.70393 4.56441,3.24201 7.15335,5.64018 2.58894,2.39817 5.15978,4.36031 5.71298,4.36031 1.06382,0 9.53457,-3.16549 14.57986,-5.44844 1.65,-0.74661 9.18969,-2.76312 16.75486,-4.48112 15.92811,-3.61717 18.62698,-4.52658 20.32497,-6.84873 1.69951,-2.32422 1.19208,-2.81856 -4.84159,-4.71666 -2.88103,-0.90632 -6.13824,-2.03072 -7.23824,-2.49866 -2.89709,-1.23242 -6.77675,-1.98676 -13.27644,-2.5814 -3.14796,-0.288 -7.35508,-0.95371 -9.34915,-1.47936 -1.99407,-0.52564 -4.91907,-1.16036 -6.5,-1.41047 -1.58093,-0.25011 -5.12441,-0.94418 -7.87441,-1.54237 -2.75,-0.59819 -6.575,-1.29992 -8.5,-1.5594 -5.16952,-0.69683 -7.16156,-1.46347 -10.59439,-4.07728 -1.70192,-1.29586 -3.45456,-2.35611 -3.89476,-2.35611 -0.4402,0 -1.74773,-0.90684 -2.90561,-2.01519 -4.78563,-4.58093 -10.42128,-8.98481 -11.49788,-8.98481 -0.63263,0 -1.61392,-1.01766 -2.18063,-2.26148 -0.96588,-2.11987 -3.64289,-4.08291 -10.17673,-7.46256 -1.5125,-0.78234 -2.75,-1.73158 -2.75,-2.10942 0,-0.37784 -1.10951,-1.88354 -2.46559,-3.346 -1.35607,-1.46247 -3.26857,-3.93287 -4.25,-5.48978 -0.98142,-1.55692 -5.25569,-7.45358 -9.49837,-13.10369 -4.24268,-5.65011 -8.4486,-11.82106 -9.3465,-13.71324 -1.95725,-4.1246 -3.50809,-4.72158 -10.55928,-4.06469 -11.28504,1.05133 -15.49435,1.87163 -21.81809,4.25188 -3.8766,1.45915 -12.37436,3.23821 -20.92534,4.38085 -15.59305,2.08366 -20.14642,3.14922 -33.13683,7.75455 -9.70715,3.44135 -20.38754,4.74524 -34.75,4.24236 -3.05657,-0.10702 -2.83156,-1.62678 0.5,-3.377 10.62386,-5.58123 13.12037,-7.1813 16.05351,-10.28904 3.95226,-4.18751 3.67956,-6.11661 -1.6622,-11.75892 -4.2247,-4.4624 -11.32673,-9.15212 -19.14131,-12.63968 -7.52364,-3.35773 -10,-4.99934 -10,-6.62915 0,-1.76598 6.24306,-1.75457 22.5,0.0411 14.85691,1.64105 82.61778,1.35129 92.5,-0.39556 3.575,-0.63194 9.79333,-2.2405 13.8185,-3.57457 6.55262,-2.17174 7.65146,-2.28404 10.5,-1.07304 4.37326,1.8592 10.62737,8.20724 12.34605,12.53146 2.88029,7.24689 3.8361,8.30898 10.28907,11.43319 3.58115,1.73382 8.10895,4.7274 10.06178,6.6524 1.95282,1.925 5.1328,4.69142 7.06663,6.14761 3.22293,2.42689 9.57891,8.80519 24.02762,24.11199 l 5.43672,5.7596 9.47682,-1.37458 c 12.13991,-1.76086 28.96714,-0.74764 37.38336,2.25095 3.2486,1.15744 5.98552,2.10443 6.08203,2.10443 0.0965,0 -1.36401,-3.0375 -3.24559,-6.75 -2.97494,-5.86976 -3.34668,-7.40427 -2.85065,-11.7672 0.69703,-6.13088 3.27795,-13.96427 5.0988,-15.47545 1.34004,-1.11213 15.65456,-4.78091 18.50886,-4.74378 2.02384,0.0263 13.65812,-1.81114 30,-4.73806 7.425,-1.32986 17.775,-3.1043 23,-3.94321 24.1127,-3.87145 29.71629,-4.75242 32.69353,-5.13993 1.75645,-0.22861 7.38145,-1.11594 12.5,-1.97183 15.69136,-2.62383 24.94903,-3.36271 27.51036,-2.19569 2.97987,1.35772 9.94622,12.34315 10.8364,17.08822 0.37526,2.00031 1.08221,3.63693 1.571,3.63693 1.28039,0 1.14257,-0.79323 -1.3413,-7.71978 -2.58607,-7.21151 -2.17209,-8.06021 4.13857,-8.48443 4.06152,-0.27303 4.45895,-0.0827 5.16439,2.47323 0.42034,1.52296 0.99024,5.04981 1.26643,7.83744 0.2762,2.78764 0.71305,5.2793 0.97078,5.53703 0.25773,0.25773 3.10587,-0.1872 6.32922,-0.98873 3.22334,-0.80153 7.50247,-1.73858 9.50917,-2.08233 2.00671,-0.34374 4.70671,-1.44096 6,-2.43824 2.59409,-2.00033 14.05069,-5.13416 18.76945,-5.13416 4.10263,0 13.04222,3.46416 17.7613,6.88264 3.43129,2.48562 4.54389,2.7634 9.4416,2.35724 7.1638,-0.59408 10.90711,1.27822 13.33934,6.67196 1.72475,3.82479 1.73371,4.28679 0.16134,8.31893 -1.96738,5.04511 -6.65827,10.32235 -13.13863,14.78096 -2.90718,2.0002 -5.24952,4.59919 -6.17802,6.85496 -3.20702,7.79145 -4.77565,10.77214 -7.56701,14.37879 -3.09031,3.9929 -3.12197,6.42735 -0.17232,13.25051 0.71425,1.65221 2.95075,7.05401 4.97002,12.00401 7.33807,17.98847 5.16142,15.67677 17.80955,18.91461 6.13516,1.57056 12.60739,3.44266 14.38274,4.16022 l 3.22791,1.30466 1.18394,-3.95162 c 0.65116,-2.17339 1.69222,-4.37346 2.31345,-4.88904 1.33933,-1.11154 17.17106,3.41996 19.6934,5.63682 1.18817,1.04427 1.50626,2.49353 1.14251,5.20546 l -0.50409,3.75828 5.94975,-0.98399 c 5.06013,-0.83686 6.66236,-0.69775 10.71552,0.93031 6.27865,2.52198 9.37106,6.72127 11.12582,15.1081 1.73831,8.30825 1.79346,11.53661 0.22388,13.10619 -2.15974,2.15974 -7.14173,1.36699 -10.90532,-1.73529 -3.55136,-2.92733 -3.56572,-2.92979 -5.29619,-0.90874 -1.76893,2.06596 -5.56857,1.94368 -8.22968,-0.26485 -1.72164,-1.42883 -10.23888,-5.7441 -15.77564,-7.99275 -2.69875,-1.09605 -8.77375,-2.39061 -13.5,-2.8768 -29.19844,-3.00364 -43.06266,-5.70483 -46.66869,-9.09251 -1.30154,-1.22274 -2.90086,-3.84249 -3.55405,-5.82167 -2.54306,-7.70555 -10.36105,-22.06371 -12.03069,-22.09501 -0.36314,-0.007 -2.52804,1.2105 -4.8109,2.70512 -3.03274,1.9856 -7.79281,3.44464 -17.67367,5.41726 -7.43766,1.48487 -13.75935,2.93608 -14.04819,3.22492 -0.28884,0.28885 0.41704,1.84837 1.56861,3.46561 1.72768,2.42629 3.05362,3.06036 7.58317,3.62629 3.115,0.38919 6.47383,1.52093 7.76532,2.61647 2.23682,1.89745 2.24257,1.9564 0.33479,3.43128 -1.06762,0.82537 -2.95356,1.50067 -4.19098,1.50067 -1.23742,0 -2.52797,0.45 -2.86789,1 -0.79845,1.29192 4.55806,1.30862 7.9349,0.0247 5.54568,-2.10846 9.69626,2.33219 8.10517,8.67162 -0.92451,3.68356 -6.66791,8.8792 -10.70864,9.68734 -10.02029,2.00406 -12.36636,1.8785 -15.59046,-0.8344 -1.70911,-1.43812 -3.61472,-4.15176 -4.2347,-6.03032 -1.06305,-3.22107 -10.06951,-12.54865 -15.64249,-16.2002 -2.83669,-1.85867 -10.33532,-1.22268 -14.01559,1.18872 -3.66594,2.40202 -18.84081,5.50387 -27.3728,5.5952 -7.08641,0.0759 -8.01938,0.31549 -9.39357,2.41276 -1.94341,2.96602 -12.24585,5.64617 -13.55587,3.52652 -1.28064,-2.07211 -5.80082,-0.37803 -7.43781,2.78756 -1.09501,2.11753 -1.31808,5.12595 -0.9146,12.33485 0.56403,10.07732 -0.27889,13.3585 -4.38678,17.07608 -2.71333,2.45554 -7.48668,3.13458 -9.05955,1.28879 z M 886.33565,197.22664 c 1.35543,-2.59421 2.46442,-5.41785 2.46442,-6.27475 0,-3.0692 -8.98614,-4.70155 -12.34828,-2.24309 -1.62875,1.19097 -1.63344,1.64684 -0.0798,7.75 0.90791,3.56653 2.10579,7.34556 2.66197,8.39785 0.96989,1.83506 1.08941,1.81462 2.92425,-0.5 1.05216,-1.32729 3.02201,-4.53579 4.37744,-7.13001 z m -22.39543,-2.42232 c 4.03757,-4.00663 6.47679,-7.19558 6.15176,-8.04259 -0.87419,-2.27812 -7.89222,-5.31833 -12.27682,-5.31833 -3.496,0 -4.20823,0.37781 -5.09142,2.70076 -1.32454,3.4838 1.69142,17.29924 3.77648,17.29924 0.41231,0 3.76031,-2.98758 7.44,-6.63908 z m 38.90773,-24.45039 c 2.37102,-4.43029 -0.74646,-7.56486 -6.45798,-6.49337 l -3.19951,0.60023 0.96002,6.42381 0.96003,6.4238 3.39266,-2.58771 c 1.86597,-1.42324 3.82112,-3.38828 4.34478,-4.36676 z m -81.2084,-0.45758 c 0.63829,-1.40088 1.16052,-3.20088 1.16052,-4 0,-2.69827 -1.96316,-1.4769 -3.48658,2.16917 -1.83832,4.39972 -1.83745,4.37788 -0.17394,4.37788 0.73672,0 1.86172,-1.14617 2.5,-2.54705 z m 17.61279,-21.33401 c -1.38023,-1.38024 -0.1593,-5.2648 2.12523,-6.76167 4.91476,-3.22028 11.00871,1.82161 7.42331,6.14176 -1.05517,1.2714 -8.41898,1.74947 -9.54854,0.61991 z m 8.22483,-2.71986 c 0.33788,-0.88051 0.0264,-1.96426 -0.69208,-2.40834 -1.51916,-0.93889 -5.21733,0.20618 -5.74115,1.77766 -0.30841,0.92523 0.67837,1.33569 5.03751,2.09542 0.42977,0.0749 1.05784,-0.58424 1.39572,-1.46474 z m -28.64311,-24.85812 c -2.73306,-3.29314 1.22101,-10.17848 7.1309,-12.41724 5.93067,-2.24663 14.29172,3.16376 13.63268,8.82162 -0.28029,2.40627 -0.66958,2.57194 -6.70205,2.85215 -3.52247,0.16362 -7.20538,0.72612 -8.18426,1.25 -2.52337,1.35047 -4.47574,1.1822 -5.87727,-0.50653 z m 14.21601,-3.12774 c 2.6125,-0.35217 4.75,-1.05967 4.75,-1.57222 0,-0.51255 -1.10455,-2.03645 -2.45455,-3.38645 -4.6611,-4.66111 -14.54545,-1.80297 -14.54545,4.20593 0,2.33968 0.26185,2.47613 3.75,1.95418 2.0625,-0.30862 5.8875,-0.84927 8.5,-1.20144 z m -50.25,-11.2859 c -3.24941,-0.58241 -3.5195,-0.91371 -3.7724,-4.62732 -0.53917,-7.917054 6.29427,-14.489434 15.07206,-14.496264 7.53909,-0.006 13.11028,3.7323 14.25056,9.56188 0.80896,4.135784 -1.20475,6.246954 -7.05022,7.391394 -2.75,0.53841 -6.125,1.21075 -7.5,1.49409 -5.56589,1.14694 -7.65664,1.27547 -11,0.67622 z m 12.59107,-3.6165 c 2.69991,-0.81904 6.09395,-1.49404 7.5423,-1.5 5.09514,-0.0209 4.03708,-6.282044 -1.7008,-10.064484 -7.81742,-5.15328 -20.41646,1.20128 -20.42883,10.303664 -0.004,2.62181 0.22192,2.75 4.83733,2.75 2.66259,0 7.05009,-0.67013 9.75,-1.48918 z"
       style="fill:#000000" />
    <text
       id="text342"
       y="503.91281"
       x="295.11337"
       style="font-style:normal;font-variant:normal;font-weight:normal;font-stretch:normal;font-size:40px;line-height:1.25;font-family:Bahnschrift;-inkscape-font-specification:Bahnschrift;letter-spacing:0px;word-spacing:0px;fill:#000000;fill-opacity:1;stroke:none"
       xml:space="preserve"><tspan
         style="font-size:221.33332825px"
         y="503.91281"
         x="295.11337"
         id="tspan340"
         sodipodi:role="line">SUSAC</tspan></text>
    <text
       id="text346"
       y="544.66064"
       x="302.52209"
       style="font-style:normal;font-variant:normal;font-weight:normal;font-stretch:normal;font-size:40px;line-height:1.25;font-family:Bahnschrift;-inkscape-font-specification:Bahnschrift;letter-spacing:0px;word-spacing:0px;fill:#000000;fill-opacity:1;stroke:none"
       xml:space="preserve"><tspan
         style="font-size:38.66666794px"
         y="544.66064"
         x="302.52209"
         id="tspan344"
         sodipodi:role="line">Southampton University Sub-Aqua Club</tspan></text>
  </g>
</svg>
